<mxfile host="app.diagrams.net" modified="2022-06-23T17:14:43.623Z" agent="5.0 (Windows NT 10.0; Win64; x64) AppleWebKit/537.36 (KHTML, like Gecko) Chrome/102.0.5005.124 Safari/537.36 Edg/102.0.1245.44" etag="JV2fRuMnZXq3Aak1sLcy" version="18.1.3" type="github">
  <diagram id="yj21QAiKKwWCb4OFiDq7" name="Page-1">
    <mxGraphModel dx="1038" dy="579" grid="1" gridSize="10" guides="1" tooltips="1" connect="1" arrows="1" fold="1" page="1" pageScale="1" pageWidth="850" pageHeight="1100" math="0" shadow="0">
      <root>
        <mxCell id="0" />
        <mxCell id="1" parent="0" />
        <mxCell id="DpBtr92trCLw08bex43z-8" style="rounded=0;orthogonalLoop=1;jettySize=auto;html=1;exitX=0;exitY=0;exitDx=0;exitDy=0;entryX=1;entryY=0.5;entryDx=0;entryDy=0;" edge="1" parent="1" source="DpBtr92trCLw08bex43z-1" target="DpBtr92trCLw08bex43z-6">
          <mxGeometry relative="1" as="geometry" />
        </mxCell>
        <mxCell id="DpBtr92trCLw08bex43z-9" style="edgeStyle=none;rounded=0;orthogonalLoop=1;jettySize=auto;html=1;exitX=1;exitY=0;exitDx=0;exitDy=0;entryX=0;entryY=0.5;entryDx=0;entryDy=0;" edge="1" parent="1" source="DpBtr92trCLw08bex43z-1" target="DpBtr92trCLw08bex43z-3">
          <mxGeometry relative="1" as="geometry" />
        </mxCell>
        <mxCell id="DpBtr92trCLw08bex43z-10" style="edgeStyle=none;rounded=0;orthogonalLoop=1;jettySize=auto;html=1;exitX=0.5;exitY=0;exitDx=0;exitDy=0;entryX=0.5;entryY=1;entryDx=0;entryDy=0;" edge="1" parent="1" source="DpBtr92trCLw08bex43z-1" target="DpBtr92trCLw08bex43z-2">
          <mxGeometry relative="1" as="geometry" />
        </mxCell>
        <mxCell id="DpBtr92trCLw08bex43z-12" style="edgeStyle=none;rounded=0;orthogonalLoop=1;jettySize=auto;html=1;exitX=1;exitY=1;exitDx=0;exitDy=0;entryX=0;entryY=0.5;entryDx=0;entryDy=0;" edge="1" parent="1" source="DpBtr92trCLw08bex43z-1" target="DpBtr92trCLw08bex43z-4">
          <mxGeometry relative="1" as="geometry" />
        </mxCell>
        <mxCell id="DpBtr92trCLw08bex43z-13" style="edgeStyle=none;rounded=0;orthogonalLoop=1;jettySize=auto;html=1;exitX=0;exitY=1;exitDx=0;exitDy=0;entryX=1;entryY=0.5;entryDx=0;entryDy=0;" edge="1" parent="1" source="DpBtr92trCLw08bex43z-1" target="DpBtr92trCLw08bex43z-7">
          <mxGeometry relative="1" as="geometry" />
        </mxCell>
        <mxCell id="DpBtr92trCLw08bex43z-14" style="edgeStyle=none;rounded=0;orthogonalLoop=1;jettySize=auto;html=1;exitX=0.5;exitY=1;exitDx=0;exitDy=0;entryX=0.5;entryY=0;entryDx=0;entryDy=0;" edge="1" parent="1" source="DpBtr92trCLw08bex43z-1" target="DpBtr92trCLw08bex43z-5">
          <mxGeometry relative="1" as="geometry" />
        </mxCell>
        <mxCell id="DpBtr92trCLw08bex43z-1" value="DBMS" style="ellipse;whiteSpace=wrap;html=1;" vertex="1" parent="1">
          <mxGeometry x="350" y="290" width="120" height="120" as="geometry" />
        </mxCell>
        <mxCell id="DpBtr92trCLw08bex43z-2" value="Software" style="rounded=1;whiteSpace=wrap;html=1;" vertex="1" parent="1">
          <mxGeometry x="350" y="170" width="120" height="60" as="geometry" />
        </mxCell>
        <mxCell id="DpBtr92trCLw08bex43z-3" value="Data" style="rounded=1;whiteSpace=wrap;html=1;" vertex="1" parent="1">
          <mxGeometry x="510" y="260" width="120" height="60" as="geometry" />
        </mxCell>
        <mxCell id="DpBtr92trCLw08bex43z-4" value="People" style="rounded=1;whiteSpace=wrap;html=1;" vertex="1" parent="1">
          <mxGeometry x="510" y="370" width="120" height="60" as="geometry" />
        </mxCell>
        <mxCell id="DpBtr92trCLw08bex43z-5" value="Data Access Language" style="rounded=1;whiteSpace=wrap;html=1;" vertex="1" parent="1">
          <mxGeometry x="350" y="461" width="120" height="60" as="geometry" />
        </mxCell>
        <mxCell id="DpBtr92trCLw08bex43z-6" value="Hardware" style="rounded=1;whiteSpace=wrap;html=1;" vertex="1" parent="1">
          <mxGeometry x="190" y="260" width="120" height="60" as="geometry" />
        </mxCell>
        <mxCell id="DpBtr92trCLw08bex43z-7" value="Procedure" style="rounded=1;whiteSpace=wrap;html=1;" vertex="1" parent="1">
          <mxGeometry x="190" y="370" width="120" height="60" as="geometry" />
        </mxCell>
        <mxCell id="DpBtr92trCLw08bex43z-15" value="Rishad&lt;br&gt;2502101103" style="text;html=1;align=center;verticalAlign=middle;resizable=0;points=[];autosize=1;strokeColor=none;fillColor=none;" vertex="1" parent="1">
          <mxGeometry x="210" y="190" width="80" height="30" as="geometry" />
        </mxCell>
      </root>
    </mxGraphModel>
  </diagram>
</mxfile>
